<svg xmlns="http://www.w3.org/2000/svg" viewBox="0 0 21.14 21.14"><defs><style>.cls-1{fill:#fff;}</style></defs><g id="Capa_2" data-name="Capa 2"><g id="Capa_1-2" data-name="Capa 1"><path class="cls-1" d="M17.71,21.14H3.43A3.44,3.44,0,0,1,0,17.71V3.43A3.44,3.44,0,0,1,3.43,0H17.71a3.44,3.44,0,0,1,3.43,3.43V17.71A3.44,3.44,0,0,1,17.71,21.14ZM3.43.94A2.5,2.5,0,0,0,.94,3.43V17.71A2.5,2.5,0,0,0,3.43,20.2H17.71a2.5,2.5,0,0,0,2.49-2.49V3.43A2.5,2.5,0,0,0,17.71.94Z"/><path class="cls-1" d="M10.55,5.24A5.47,5.47,0,1,0,16,10.7a5.48,5.48,0,0,0-5.47-5.46Zm0,9a3.59,3.59,0,1,1,3.59-3.59,3.59,3.59,0,0,1-3.59,3.59Z"/><path class="cls-1" d="M16.25,3.64a1.42,1.42,0,0,0-1,.4,1.4,1.4,0,0,0,0,2,1.42,1.42,0,0,0,1,.4,1.38,1.38,0,0,0,0-2.76Z"/></g></g></svg>