<svg xmlns="http://www.w3.org/2000/svg" viewBox="0 0 21.14 21.14"><defs><style>.cls-1{fill:#fff;}</style></defs><g id="Capa_2" data-name="Capa 2"><g id="Capa_1-2" data-name="Capa 1"><rect class="cls-1" x="5.29" y="7.35" width="2.46" height="8.61"/><rect class="cls-1" x="5.29" y="3.65" width="2.46" height="2.46"/><path class="cls-1" d="M16.36,16H13.9V11a1.23,1.23,0,0,0-2.46,0V16H9V7.35h2.46v.46a5.41,5.41,0,0,1,1.85-.46,3.21,3.21,0,0,1,3.07,3.26Z"/><path class="cls-1" d="M17.71,21.14H3.43A3.44,3.44,0,0,1,0,17.71V3.43A3.44,3.44,0,0,1,3.43,0H17.71a3.44,3.44,0,0,1,3.43,3.43V17.71A3.44,3.44,0,0,1,17.71,21.14ZM3.43.94A2.5,2.5,0,0,0,.94,3.43V17.71A2.5,2.5,0,0,0,3.43,20.2H17.71a2.5,2.5,0,0,0,2.49-2.49V3.43A2.5,2.5,0,0,0,17.71.94Z"/></g></g></svg>