<svg xmlns="http://www.w3.org/2000/svg" viewBox="0 0 140.18 15.81"><defs><style>.cls-1{fill:#fff;}</style></defs><g id="Capa_2" data-name="Capa 2"><g id="Capa_1-2" data-name="Capa 1"><path class="cls-1" d="M9.1,9.42h1.61v4.82a6.25,6.25,0,0,1-2,1.16,7.32,7.32,0,0,1-2.42.41A6.31,6.31,0,0,1,3.05,15,6,6,0,0,1,.81,12.73,6.49,6.49,0,0,1,0,9.49,6.5,6.5,0,0,1,.81,6.24,6,6,0,0,1,3.06,4a6.48,6.48,0,0,1,3.23-.81,6.39,6.39,0,0,1,2.56.49,5.24,5.24,0,0,1,2,1.42l-1,1.1A4.6,4.6,0,0,0,6.36,4.73,4.82,4.82,0,0,0,4,5.34,4.47,4.47,0,0,0,2.28,7a5,5,0,0,0-.6,2.45,5,5,0,0,0,.6,2.43A4.47,4.47,0,0,0,4,13.62a4.7,4.7,0,0,0,2.39.62,4.84,4.84,0,0,0,2.76-.8Z"/><path class="cls-1" d="M21.4,12.58H15.15l-1.29,3.09H12.13L17.45,3.3h1.66l5.34,12.37H22.69Zm-.59-1.42-2.53-6-2.54,6.05Z"/><path class="cls-1" d="M27.06,15.38a5.22,5.22,0,0,1-1.94-1.12l.62-1.38a5.08,5.08,0,0,0,1.72,1,6,6,0,0,0,2.16.4,3.71,3.71,0,0,0,2.18-.52,1.64,1.64,0,0,0,.72-1.39,1.4,1.4,0,0,0-.39-1,2.55,2.55,0,0,0-1-.61c-.39-.14-.94-.3-1.64-.48a16.33,16.33,0,0,1-2.14-.67,3.52,3.52,0,0,1-1.39-1,2.87,2.87,0,0,1-.58-1.89,3.31,3.31,0,0,1,.49-1.78,3.45,3.45,0,0,1,1.5-1.27,5.85,5.85,0,0,1,2.51-.48,7.84,7.84,0,0,1,2,.28,5.24,5.24,0,0,1,1.73.82l-.55,1.41a6,6,0,0,0-1.58-.75,5.66,5.66,0,0,0-1.64-.26,3.49,3.49,0,0,0-2.14.55,1.71,1.71,0,0,0-.72,1.41,1.4,1.4,0,0,0,.41,1,2.83,2.83,0,0,0,1,.62,16.28,16.28,0,0,0,1.62.46,15,15,0,0,1,2.13.68,3.56,3.56,0,0,1,1.39,1,2.83,2.83,0,0,1,.58,1.86,3.26,3.26,0,0,1-.51,1.77,3.33,3.33,0,0,1-1.52,1.27,6.09,6.09,0,0,1-2.52.47A7.65,7.65,0,0,1,27.06,15.38Z"/><path class="cls-1" d="M38.78,4.84h-4V3.3h9.72V4.84h-4V15.67H38.78Z"/><path class="cls-1" d="M48.23,15A6,6,0,0,1,46,12.72a6.51,6.51,0,0,1-.81-3.23A6.55,6.55,0,0,1,46,6.25,6,6,0,0,1,48.23,4a6.65,6.65,0,0,1,6.4,0,5.9,5.9,0,0,1,2.23,2.26,6.6,6.6,0,0,1,.8,3.25,6.59,6.59,0,0,1-.8,3.24A5.9,5.9,0,0,1,54.63,15a6.65,6.65,0,0,1-6.4,0Zm5.53-1.37a4.44,4.44,0,0,0,1.63-1.7A5,5,0,0,0,56,9.49a4.91,4.91,0,0,0-.59-2.43,4.4,4.4,0,0,0-1.63-1.71,4.45,4.45,0,0,0-2.32-.62,4.52,4.52,0,0,0-2.34.62,4.38,4.38,0,0,0-1.65,1.71,4.91,4.91,0,0,0-.59,2.43,5,5,0,0,0,.59,2.43,4.42,4.42,0,0,0,1.65,1.7,4.52,4.52,0,0,0,2.34.62A4.45,4.45,0,0,0,53.76,13.62ZM52.46,0h2L51.69,2.3H50.18Z"/><path class="cls-1" d="M70.33,3.3V15.67H69l-7-9.22v9.22H60.23V3.3h1.38l7,9.22V3.3Z"/><path class="cls-1" d="M80.05,4.84V9.15h5.89v1.52H80.05v5H78.37V3.3h8.29V4.84Z"/><path class="cls-1" d="M91,15a6,6,0,0,1-2.24-2.27,6.51,6.51,0,0,1-.81-3.23,6.55,6.55,0,0,1,.81-3.24A6,6,0,0,1,91,4a6.65,6.65,0,0,1,6.4,0,5.9,5.9,0,0,1,2.23,2.26,6.6,6.6,0,0,1,.8,3.25,6.59,6.59,0,0,1-.8,3.24A5.9,5.9,0,0,1,97.39,15,6.65,6.65,0,0,1,91,15Zm5.53-1.37a4.44,4.44,0,0,0,1.63-1.7,5,5,0,0,0,.59-2.43,4.91,4.91,0,0,0-.59-2.43,4.4,4.4,0,0,0-1.63-1.71,4.45,4.45,0,0,0-2.32-.62,4.55,4.55,0,0,0-2.34.62,4.38,4.38,0,0,0-1.65,1.71,4.91,4.91,0,0,0-.59,2.43,5,5,0,0,0,.59,2.43,4.42,4.42,0,0,0,1.65,1.7,4.55,4.55,0,0,0,2.34.62A4.45,4.45,0,0,0,96.52,13.62Z"/><path class="cls-1" d="M110.84,15.67l-2.53-3.8-.74,0h-2.9v3.76H103V3.3h4.58a5.28,5.28,0,0,1,3.59,1.15,4,4,0,0,1,1.31,3.16,4.27,4.27,0,0,1-.67,2.44,3.84,3.84,0,0,1-1.91,1.47l2.78,4.15Zm-.88-6a2.6,2.6,0,0,0,.83-2.07A2.56,2.56,0,0,0,110,5.56a3.66,3.66,0,0,0-2.44-.72h-2.85V10.4h2.85A3.66,3.66,0,0,0,110,9.68Z"/><path class="cls-1" d="M117.36,4.84h-4V3.3h9.72V4.84h-4V15.67h-1.66Z"/><path class="cls-1" d="M126.74,0h2L126,2.3h-1.51Zm-1.87,3.3h1.68V15.67h-1.68Z"/><path class="cls-1" d="M140.18,3.3V15.67H138.8l-7-9.22v9.22h-1.68V3.3h1.37l7.05,9.22V3.3Z"/></g></g></svg>